<mxfile host="app.diagrams.net" agent="Mozilla/5.0 (X11; Linux x86_64; rv:134.0) Gecko/20100101 Firefox/134.0" version="28.2.5">
  <diagram name="PÃ¡gina-1" id="fw5mW2fB7bdGNI1wL9N1">
    <mxGraphModel dx="1426" dy="788" grid="1" gridSize="10" guides="1" tooltips="1" connect="1" arrows="1" fold="1" page="1" pageScale="1" pageWidth="827" pageHeight="1169" math="0" shadow="0">
      <root>
        <mxCell id="0" />
        <mxCell id="1" parent="0" />
        <mxCell id="4Fa5aUzkQaO2QB0aPjjn-1" value="ARTISTA" style="rounded=0;whiteSpace=wrap;html=1;fillColor=#f8cecc;strokeColor=#b85450;" vertex="1" parent="1">
          <mxGeometry x="110" y="140" width="120" height="60" as="geometry" />
        </mxCell>
        <mxCell id="4Fa5aUzkQaO2QB0aPjjn-2" value="GIRA" style="rounded=0;whiteSpace=wrap;html=1;fillColor=#f8cecc;strokeColor=#b85450;" vertex="1" parent="1">
          <mxGeometry x="530" y="140" width="120" height="60" as="geometry" />
        </mxCell>
        <mxCell id="4Fa5aUzkQaO2QB0aPjjn-3" value="CONCIERTO" style="rounded=0;whiteSpace=wrap;html=1;fillColor=#f8cecc;strokeColor=#b85450;" vertex="1" parent="1">
          <mxGeometry x="520" y="460" width="120" height="60" as="geometry" />
        </mxCell>
        <mxCell id="4Fa5aUzkQaO2QB0aPjjn-4" value="NOMBRE" style="ellipse;whiteSpace=wrap;html=1;fillColor=#ffe6cc;strokeColor=#d79b00;" vertex="1" parent="1">
          <mxGeometry x="140" y="50" width="80" height="40" as="geometry" />
        </mxCell>
        <mxCell id="4Fa5aUzkQaO2QB0aPjjn-5" value="EDAD" style="ellipse;whiteSpace=wrap;html=1;fillColor=#ffe6cc;strokeColor=#d79b00;" vertex="1" parent="1">
          <mxGeometry x="250" y="90" width="70" height="30" as="geometry" />
        </mxCell>
        <mxCell id="4Fa5aUzkQaO2QB0aPjjn-6" value="GIRA PROGRAMADA" style="rhombus;whiteSpace=wrap;html=1;fillColor=#e3c800;fontColor=#000000;strokeColor=#B09500;" vertex="1" parent="1">
          <mxGeometry x="330" y="130" width="110" height="100" as="geometry" />
        </mxCell>
        <mxCell id="4Fa5aUzkQaO2QB0aPjjn-7" value="" style="shape=flexArrow;endArrow=classic;html=1;rounded=0;entryX=0;entryY=0.5;entryDx=0;entryDy=0;fillColor=#000000;" edge="1" parent="1" target="4Fa5aUzkQaO2QB0aPjjn-6">
          <mxGeometry width="50" height="50" relative="1" as="geometry">
            <mxPoint x="230" y="180" as="sourcePoint" />
            <mxPoint x="280" y="130" as="targetPoint" />
          </mxGeometry>
        </mxCell>
        <mxCell id="4Fa5aUzkQaO2QB0aPjjn-9" value="NOMBRE" style="ellipse;whiteSpace=wrap;html=1;fillColor=#ffe6cc;strokeColor=#d79b00;" vertex="1" parent="1">
          <mxGeometry x="550" y="60" width="60" height="40" as="geometry" />
        </mxCell>
        <mxCell id="4Fa5aUzkQaO2QB0aPjjn-10" value="CONCIERTOS QUE LA FORMAN" style="rhombus;whiteSpace=wrap;html=1;fillColor=#e3c800;fontColor=#000000;strokeColor=#B09500;" vertex="1" parent="1">
          <mxGeometry x="525" y="280" width="110" height="90" as="geometry" />
        </mxCell>
        <mxCell id="4Fa5aUzkQaO2QB0aPjjn-11" value="" style="shape=flexArrow;endArrow=classic;html=1;rounded=0;exitX=0.575;exitY=-0.017;exitDx=0;exitDy=0;entryX=0.5;entryY=1;entryDx=0;entryDy=0;exitPerimeter=0;fillColor=#000000;" edge="1" parent="1" source="4Fa5aUzkQaO2QB0aPjjn-3" target="4Fa5aUzkQaO2QB0aPjjn-10">
          <mxGeometry width="50" height="50" relative="1" as="geometry">
            <mxPoint x="500" y="450" as="sourcePoint" />
            <mxPoint x="620" y="400" as="targetPoint" />
            <Array as="points" />
          </mxGeometry>
        </mxCell>
        <mxCell id="4Fa5aUzkQaO2QB0aPjjn-12" value="" style="shape=flexArrow;endArrow=classic;html=1;rounded=0;entryX=0.5;entryY=0;entryDx=0;entryDy=0;fillColor=#000000;" edge="1" parent="1" source="4Fa5aUzkQaO2QB0aPjjn-2" target="4Fa5aUzkQaO2QB0aPjjn-10">
          <mxGeometry width="50" height="50" relative="1" as="geometry">
            <mxPoint x="585" y="210" as="sourcePoint" />
            <mxPoint x="635" y="160" as="targetPoint" />
          </mxGeometry>
        </mxCell>
        <mxCell id="4Fa5aUzkQaO2QB0aPjjn-13" value="" style="endArrow=classic;html=1;rounded=0;entryX=0.5;entryY=1;entryDx=0;entryDy=0;" edge="1" parent="1" target="4Fa5aUzkQaO2QB0aPjjn-5">
          <mxGeometry width="50" height="50" relative="1" as="geometry">
            <mxPoint x="210" y="140" as="sourcePoint" />
            <mxPoint x="260" y="90" as="targetPoint" />
          </mxGeometry>
        </mxCell>
        <mxCell id="4Fa5aUzkQaO2QB0aPjjn-14" value="" style="endArrow=classic;html=1;rounded=0;entryX=0.5;entryY=1;entryDx=0;entryDy=0;" edge="1" parent="1" target="4Fa5aUzkQaO2QB0aPjjn-4">
          <mxGeometry width="50" height="50" relative="1" as="geometry">
            <mxPoint x="160" y="140" as="sourcePoint" />
            <mxPoint x="210" y="90" as="targetPoint" />
          </mxGeometry>
        </mxCell>
        <mxCell id="4Fa5aUzkQaO2QB0aPjjn-15" value="" style="endArrow=classic;html=1;rounded=0;entryX=0.5;entryY=1;entryDx=0;entryDy=0;" edge="1" parent="1" target="4Fa5aUzkQaO2QB0aPjjn-9">
          <mxGeometry width="50" height="50" relative="1" as="geometry">
            <mxPoint x="585" y="140" as="sourcePoint" />
            <mxPoint x="635" y="90" as="targetPoint" />
          </mxGeometry>
        </mxCell>
        <mxCell id="4Fa5aUzkQaO2QB0aPjjn-16" value="FECHA" style="ellipse;whiteSpace=wrap;html=1;fillColor=#ffe6cc;strokeColor=#d79b00;" vertex="1" parent="1">
          <mxGeometry x="670" y="515" width="60" height="40" as="geometry" />
        </mxCell>
        <mxCell id="4Fa5aUzkQaO2QB0aPjjn-17" value="UBICACION" style="ellipse;whiteSpace=wrap;html=1;fillColor=#ffe6cc;strokeColor=#d79b00;" vertex="1" parent="1">
          <mxGeometry x="590" y="570" width="80" height="30" as="geometry" />
        </mxCell>
        <mxCell id="4Fa5aUzkQaO2QB0aPjjn-18" value="" style="endArrow=classic;html=1;rounded=0;entryX=0.5;entryY=0;entryDx=0;entryDy=0;exitX=1;exitY=0.5;exitDx=0;exitDy=0;" edge="1" parent="1" source="4Fa5aUzkQaO2QB0aPjjn-3" target="4Fa5aUzkQaO2QB0aPjjn-16">
          <mxGeometry width="50" height="50" relative="1" as="geometry">
            <mxPoint x="380" y="460" as="sourcePoint" />
            <mxPoint x="430" y="410" as="targetPoint" />
          </mxGeometry>
        </mxCell>
        <mxCell id="4Fa5aUzkQaO2QB0aPjjn-19" value="" style="endArrow=classic;html=1;rounded=0;entryX=0.75;entryY=0;entryDx=0;entryDy=0;entryPerimeter=0;exitX=0.75;exitY=1;exitDx=0;exitDy=0;" edge="1" parent="1" source="4Fa5aUzkQaO2QB0aPjjn-3" target="4Fa5aUzkQaO2QB0aPjjn-17">
          <mxGeometry width="50" height="50" relative="1" as="geometry">
            <mxPoint x="325" y="460" as="sourcePoint" />
            <mxPoint x="375" y="410" as="targetPoint" />
          </mxGeometry>
        </mxCell>
        <mxCell id="4Fa5aUzkQaO2QB0aPjjn-21" value="CANCIONES" style="rounded=0;whiteSpace=wrap;html=1;fillColor=#f8cecc;strokeColor=#b85450;" vertex="1" parent="1">
          <mxGeometry x="80" y="525" width="120" height="60" as="geometry" />
        </mxCell>
        <mxCell id="4Fa5aUzkQaO2QB0aPjjn-22" value="PROPIAS" style="rhombus;whiteSpace=wrap;html=1;fillColor=#e3c800;fontColor=#000000;strokeColor=#B09500;" vertex="1" parent="1">
          <mxGeometry x="10" y="285" width="80" height="80" as="geometry" />
        </mxCell>
        <mxCell id="4Fa5aUzkQaO2QB0aPjjn-23" value="" style="shape=flexArrow;endArrow=classic;html=1;rounded=0;entryX=0.5;entryY=0;entryDx=0;entryDy=0;fillColor=#000000;exitX=0;exitY=0.5;exitDx=0;exitDy=0;" edge="1" parent="1" source="4Fa5aUzkQaO2QB0aPjjn-1" target="4Fa5aUzkQaO2QB0aPjjn-22">
          <mxGeometry width="50" height="50" relative="1" as="geometry">
            <mxPoint x="170" y="200" as="sourcePoint" />
            <mxPoint x="220" y="150" as="targetPoint" />
          </mxGeometry>
        </mxCell>
        <mxCell id="4Fa5aUzkQaO2QB0aPjjn-24" value="" style="shape=flexArrow;endArrow=classic;html=1;rounded=0;entryX=0.5;entryY=1;entryDx=0;entryDy=0;fillColor=#000000;exitX=0.25;exitY=0;exitDx=0;exitDy=0;" edge="1" parent="1" source="4Fa5aUzkQaO2QB0aPjjn-21" target="4Fa5aUzkQaO2QB0aPjjn-22">
          <mxGeometry width="50" height="50" relative="1" as="geometry">
            <mxPoint x="160" y="440" as="sourcePoint" />
            <mxPoint x="210" y="390" as="targetPoint" />
          </mxGeometry>
        </mxCell>
        <mxCell id="4Fa5aUzkQaO2QB0aPjjn-25" value="PERTENECE" style="rhombus;whiteSpace=wrap;html=1;fillColor=#e3c800;fontColor=#000000;strokeColor=#B09500;" vertex="1" parent="1">
          <mxGeometry x="100" y="310" width="90" height="75" as="geometry" />
        </mxCell>
        <mxCell id="4Fa5aUzkQaO2QB0aPjjn-26" value="" style="shape=flexArrow;endArrow=classic;html=1;rounded=0;entryX=0.5;entryY=1;entryDx=0;entryDy=0;fillColor=#000000;exitX=0.65;exitY=0.033;exitDx=0;exitDy=0;exitPerimeter=0;" edge="1" parent="1" source="4Fa5aUzkQaO2QB0aPjjn-21" target="4Fa5aUzkQaO2QB0aPjjn-25">
          <mxGeometry width="50" height="50" relative="1" as="geometry">
            <mxPoint x="205" y="440" as="sourcePoint" />
            <mxPoint x="255" y="390" as="targetPoint" />
            <Array as="points" />
          </mxGeometry>
        </mxCell>
        <mxCell id="4Fa5aUzkQaO2QB0aPjjn-27" value="" style="shape=flexArrow;endArrow=classic;html=1;rounded=0;entryX=0.5;entryY=0;entryDx=0;entryDy=0;fillColor=#000000;exitX=0.25;exitY=1;exitDx=0;exitDy=0;" edge="1" parent="1" source="4Fa5aUzkQaO2QB0aPjjn-1" target="4Fa5aUzkQaO2QB0aPjjn-25">
          <mxGeometry width="50" height="50" relative="1" as="geometry">
            <mxPoint x="205" y="200" as="sourcePoint" />
            <mxPoint x="255" y="150" as="targetPoint" />
          </mxGeometry>
        </mxCell>
        <mxCell id="4Fa5aUzkQaO2QB0aPjjn-28" value="SOLO" style="rhombus;whiteSpace=wrap;html=1;fillColor=#e3c800;fontColor=#000000;strokeColor=#B09500;" vertex="1" parent="1">
          <mxGeometry x="320" y="270" width="80" height="80" as="geometry" />
        </mxCell>
        <mxCell id="4Fa5aUzkQaO2QB0aPjjn-29" value="" style="shape=flexArrow;endArrow=classic;html=1;rounded=0;entryX=0;entryY=0.5;entryDx=0;entryDy=0;exitX=1;exitY=1;exitDx=0;exitDy=0;fillColor=#000000;" edge="1" parent="1" source="4Fa5aUzkQaO2QB0aPjjn-1" target="4Fa5aUzkQaO2QB0aPjjn-28">
          <mxGeometry width="50" height="50" relative="1" as="geometry">
            <mxPoint x="230" y="205" as="sourcePoint" />
            <mxPoint x="280" y="155" as="targetPoint" />
          </mxGeometry>
        </mxCell>
        <mxCell id="4Fa5aUzkQaO2QB0aPjjn-32" value="" style="shape=flexArrow;endArrow=classic;html=1;rounded=0;entryX=1;entryY=0.5;entryDx=0;entryDy=0;exitX=0;exitY=0;exitDx=0;exitDy=0;fillColor=#000000;" edge="1" parent="1" source="4Fa5aUzkQaO2QB0aPjjn-3" target="4Fa5aUzkQaO2QB0aPjjn-28">
          <mxGeometry width="50" height="50" relative="1" as="geometry">
            <mxPoint x="520" y="480" as="sourcePoint" />
            <mxPoint x="570" y="430" as="targetPoint" />
          </mxGeometry>
        </mxCell>
        <mxCell id="4Fa5aUzkQaO2QB0aPjjn-36" value="" style="shape=flexArrow;endArrow=classic;html=1;rounded=0;exitX=0;exitY=0.5;exitDx=0;exitDy=0;fillColor=#000000;" edge="1" parent="1" source="4Fa5aUzkQaO2QB0aPjjn-2" target="4Fa5aUzkQaO2QB0aPjjn-6">
          <mxGeometry width="50" height="50" relative="1" as="geometry">
            <mxPoint x="525" y="180" as="sourcePoint" />
            <mxPoint x="575" y="130" as="targetPoint" />
          </mxGeometry>
        </mxCell>
        <mxCell id="4Fa5aUzkQaO2QB0aPjjn-37" value="GRUPO" style="rounded=0;whiteSpace=wrap;html=1;fillColor=#f8cecc;strokeColor=#b85450;" vertex="1" parent="1">
          <mxGeometry x="280" y="540" width="120" height="60" as="geometry" />
        </mxCell>
        <mxCell id="4Fa5aUzkQaO2QB0aPjjn-38" style="edgeStyle=orthogonalEdgeStyle;rounded=0;orthogonalLoop=1;jettySize=auto;html=1;exitX=0.5;exitY=1;exitDx=0;exitDy=0;" edge="1" parent="1" source="4Fa5aUzkQaO2QB0aPjjn-37" target="4Fa5aUzkQaO2QB0aPjjn-37">
          <mxGeometry relative="1" as="geometry" />
        </mxCell>
        <mxCell id="4Fa5aUzkQaO2QB0aPjjn-39" value="PERTENECE" style="rhombus;whiteSpace=wrap;html=1;fillColor=#e3c800;fontColor=#000000;strokeColor=#B09500;" vertex="1" parent="1">
          <mxGeometry x="220" y="330" width="90" height="85" as="geometry" />
        </mxCell>
        <mxCell id="4Fa5aUzkQaO2QB0aPjjn-43" value="" style="shape=flexArrow;endArrow=classic;html=1;rounded=0;entryX=0.5;entryY=0;entryDx=0;entryDy=0;fillColor=#000000;exitX=0.25;exitY=1;exitDx=0;exitDy=0;" edge="1" parent="1" target="4Fa5aUzkQaO2QB0aPjjn-39">
          <mxGeometry width="50" height="50" relative="1" as="geometry">
            <mxPoint x="200" y="200" as="sourcePoint" />
            <mxPoint x="205" y="310" as="targetPoint" />
          </mxGeometry>
        </mxCell>
        <mxCell id="4Fa5aUzkQaO2QB0aPjjn-44" value="" style="shape=flexArrow;endArrow=classic;html=1;rounded=0;entryX=0.5;entryY=1;entryDx=0;entryDy=0;fillColor=#000000;exitX=0;exitY=0.25;exitDx=0;exitDy=0;" edge="1" parent="1" source="4Fa5aUzkQaO2QB0aPjjn-37" target="4Fa5aUzkQaO2QB0aPjjn-39">
          <mxGeometry width="50" height="50" relative="1" as="geometry">
            <mxPoint x="350" y="480" as="sourcePoint" />
            <mxPoint x="315" y="570" as="targetPoint" />
          </mxGeometry>
        </mxCell>
        <mxCell id="4Fa5aUzkQaO2QB0aPjjn-46" value="NOMBRE" style="ellipse;whiteSpace=wrap;html=1;fillColor=#ffe6cc;strokeColor=#d79b00;" vertex="1" parent="1">
          <mxGeometry x="240" y="640" width="70" height="30" as="geometry" />
        </mxCell>
        <mxCell id="4Fa5aUzkQaO2QB0aPjjn-47" value="ARTISTAS QUE LO FORMAN" style="ellipse;whiteSpace=wrap;html=1;fillColor=#ffe6cc;strokeColor=#d79b00;" vertex="1" parent="1">
          <mxGeometry x="350" y="635" width="90" height="40" as="geometry" />
        </mxCell>
        <mxCell id="4Fa5aUzkQaO2QB0aPjjn-48" value="" style="endArrow=classic;html=1;rounded=0;entryX=0.5;entryY=0;entryDx=0;entryDy=0;" edge="1" parent="1" target="4Fa5aUzkQaO2QB0aPjjn-46">
          <mxGeometry width="50" height="50" relative="1" as="geometry">
            <mxPoint x="290" y="600" as="sourcePoint" />
            <mxPoint x="340" y="550" as="targetPoint" />
          </mxGeometry>
        </mxCell>
        <mxCell id="4Fa5aUzkQaO2QB0aPjjn-49" value="" style="endArrow=classic;html=1;rounded=0;entryX=0.5;entryY=0;entryDx=0;entryDy=0;" edge="1" parent="1" source="4Fa5aUzkQaO2QB0aPjjn-37" target="4Fa5aUzkQaO2QB0aPjjn-47">
          <mxGeometry width="50" height="50" relative="1" as="geometry">
            <mxPoint x="370" y="605" as="sourcePoint" />
            <mxPoint x="420" y="555" as="targetPoint" />
          </mxGeometry>
        </mxCell>
        <mxCell id="4Fa5aUzkQaO2QB0aPjjn-50" value="ORGANIZAN" style="rhombus;whiteSpace=wrap;html=1;fillColor=#e3c800;fontColor=#000000;strokeColor=#B09500;" vertex="1" parent="1">
          <mxGeometry x="370" y="415" width="80" height="80" as="geometry" />
        </mxCell>
        <mxCell id="4Fa5aUzkQaO2QB0aPjjn-52" value="" style="shape=flexArrow;endArrow=classic;html=1;rounded=0;entryX=0;entryY=0.5;entryDx=0;entryDy=0;fillColor=#000000;exitX=0;exitY=0.25;exitDx=0;exitDy=0;" edge="1" parent="1" target="4Fa5aUzkQaO2QB0aPjjn-50">
          <mxGeometry width="50" height="50" relative="1" as="geometry">
            <mxPoint x="370" y="540" as="sourcePoint" />
            <mxPoint x="355" y="400" as="targetPoint" />
          </mxGeometry>
        </mxCell>
        <mxCell id="4Fa5aUzkQaO2QB0aPjjn-53" value="" style="shape=flexArrow;endArrow=classic;html=1;rounded=0;entryX=0;entryY=1;entryDx=0;entryDy=0;fillColor=#000000;exitX=1;exitY=0.5;exitDx=0;exitDy=0;" edge="1" parent="1" source="4Fa5aUzkQaO2QB0aPjjn-50" target="4Fa5aUzkQaO2QB0aPjjn-3">
          <mxGeometry width="50" height="50" relative="1" as="geometry">
            <mxPoint x="450" y="460" as="sourcePoint" />
            <mxPoint x="440" y="320" as="targetPoint" />
          </mxGeometry>
        </mxCell>
        <mxCell id="4Fa5aUzkQaO2QB0aPjjn-54" value="NOMBRE" style="ellipse;whiteSpace=wrap;html=1;fillColor=#ffe6cc;strokeColor=#d79b00;" vertex="1" parent="1">
          <mxGeometry x="90" y="620" width="80" height="40" as="geometry" />
        </mxCell>
        <mxCell id="4Fa5aUzkQaO2QB0aPjjn-55" value="" style="endArrow=classic;html=1;rounded=0;entryX=0.5;entryY=0;entryDx=0;entryDy=0;" edge="1" parent="1" target="4Fa5aUzkQaO2QB0aPjjn-54">
          <mxGeometry width="50" height="50" relative="1" as="geometry">
            <mxPoint x="140" y="585" as="sourcePoint" />
            <mxPoint x="190" y="535" as="targetPoint" />
          </mxGeometry>
        </mxCell>
      </root>
    </mxGraphModel>
  </diagram>
</mxfile>
